#!OML:ASF I:\Actors\actors\Patient Classification 2\Patient 1\Session 1\actor1.ASF
:FULLY-SPECIFIED
:DEGREES
655
root -0.267804 18.8886 4.7509 13.2546 2.41395 3.37429
lowerback 21.9751 -1.57186 3.48904
upperback 4.68077 -0.615154 7.32695
thorax -7.10112 -0.300548 6.2204
lowerneck -19.1855 -1.46466 -2.28021
upperneck 9.56133 -0.301457 -7.69256
head 6.03263 -0.890595 -2.14134
rclavicle 5.08889e-014 3.33958e-014
rhumerus -60.0902 -7.6125 -56.6181
rradius 56.1008
rwrist -0.995484
rhand -7.2515 -45.3748
rfingers 7.12502
rthumb 18.6289 -74.5028
lclavicle 5.08889e-014 3.33958e-014
lhumerus 58.8791 -15.5853 13.337
lradius 67.6741
lwrist 19.6967
lhand 22.655 -5.94501
lfingers 7.12502
lthumb 46.9999 16.7212
rfemur 0 0 0
rtibia 0
rfoot 0 0
rtoes 0
lfemur -22.9448 -1.2551 -18.1579
ltibia 23.314
lfoot -14.0842 7.66974
ltoes -55.3428
656
root -0.255648 18.8897 4.74854 13.2075 1.4187 3.15789
lowerback 22.0413 -1.91968 3.22938
upperback 4.79812 -1.15537 7.09
thorax -6.96091 -0.562971 6.2521
lowerneck -19.566 -0.726994 -2.06385
upperneck 9.03687 0.73092 -8.5188
head 5.96918 -0.441577 -2.33207
rclavicle 3.02153e-014 3.02153e-014
rhumerus -60.2358 -8.1479 -56.9601
rradius 55.7482
rwrist -0.447882
rhand -7.17808 -45.1911
rfingers 7.12502
rthumb 18.6995 -74.3123
lclavicle 3.02153e-014 3.02153e-014
lhumerus 58.1019 -16.8869 15.0489
lradius 64.9708
lwrist 15.8058
lhand 21.0824 -6.29826
lfingers 7.12502
lthumb 45.5421 16.9845
rfemur 0 0 0
rtibia 0
rfoot 0 0
rtoes 0
lfemur -22.8204 -0.713507 -18.0846
ltibia 23.4074
lfoot -14.3672 8.03954
ltoes -55.1989
657
root -0.240699 18.8891 4.74595 13.162 0.5182 2.94999
lowerback 22.0707 -2.26267 3.14534
upperback 4.68505 -1.64887 6.67865
thorax -7.06936 -0.802224 5.98272
lowerneck -18.8481 -0.0469563 -1.46774
upperneck 8.24536 1.50104 -9.32191
head 5.64482 -0.0644075 -2.58939
rclavicle 1.59028e-015 -5.88403e-014
rhumerus -60.9995 -8.8492 -57.2572
rradius 55.4852
rwrist 0.0528961
rhand -7.1472 -44.9247
rfingers 7.12502
rthumb 18.7292 -74.0431
lclavicle 1.59028e-015 -5.88403e-014
lhumerus 57.1631 -18.3809 16.8691
lradius 62.4915
lwrist 12.2802
lhand 19.5359 -6.73028
lfingers 7.12502
lthumb 44.1025 17.1143
rfemur 0 0 0
rtibia 0
rfoot 0 0
rtoes 0
lfemur -22.7423 -0.14542 -18.0397
ltibia 23.5673
lfoot -14.6185 8.33433
ltoes -55.1726
658
root -0.22501 18.8866 4.74385 13.0823 -0.280097 2.73798
lowerback 22.0971 -2.69098 2.99675
upperback 4.83483 -2.27543 6.38867
thorax -6.87436 -1.10881 5.9103
lowerneck -19.443 0.650406 -1.12499
upperneck 7.80639 2.42963 -10.0119
head 5.66064 0.344815 -2.77075
rclavicle 3.89618e-014 3.18055e-015
rhumerus -60.8996 -9.55242 -57.522
rradius 55.0861
rwrist 0.327719
rhand -7.2094 -44.7245
rfingers 7.12502
rthumb 18.6694 -73.8486
lclavicle 3.89618e-014 3.18055e-015
lhumerus 55.8269 -18.9636 19.0588
lradius 60.0806
lwrist 9.36759
lhand 18.5809 -7.29129
lfingers 7.12502
lthumb 43.2109 16.8797
rfemur 0 0 0
rtibia 0
rfoot 0 0
rtoes 0
lfemur -22.6416 0.268268 -17.9631
ltibia 23.7327
lfoot -14.8591 8.70019
ltoes -55.2615
659
root -0.216855 18.8841 4.74396 12.9757 -0.984711 2.53371
lowerback 22.1547 -3.07293 2.76606
upperback 4.84152 -2.84373 6.14053
thorax -6.85402 -1.38252 5.92566
lowerneck -19.4111 1.20364 -0.931051
upperneck 7.15048 3.1313 -10.5846
head 5.49981 0.67502 -2.90669
rclavicle 3.18055e-014 -2.8625e-014
rhumerus -61.1141 -10.1451 -57.631
rradius 54.8142
rwrist 0.479053
rhand -7.28904 -44.639
rfingers 7.12502
rthumb 18.5928 -73.7705
lclavicle 3.18055e-014 -2.8625e-014
lhumerus 54.5564 -19.5798 21.5018
lradius 57.6794
lwrist 7.35637
lhand 17.8781 -7.17011
lfingers 7.12502
lthumb 42.5535 17.2317
rfemur 0 0 0
rtibia 0
rfoot 0 0
rtoes 0
lfemur -22.5046 0.64127 -17.8488
ltibia 23.8872
lfoot -15.1089 8.98643
ltoes -55.3052
660
root -0.215272 18.8823 4.74362 12.8738 -1.61967 2.38491
lowerback 22.1268 -3.14832 3.04885
upperback 4.37783 -2.8663 5.98111
thorax -7.37107 -1.38986 5.61842
lowerneck -17.8942 0.996991 -2.33569
upperneck 6.45439 3.01805 -10.396
head 5.01008 0.668044 -2.62046
rclavicle -1.90833e-014 -1.59028e-014
rhumerus -62.8315 -10.7945 -56.6917
rradius 54.9081
rwrist 0.312255
rhand -7.33632 -44.8197
rfingers 7.12502
rthumb 18.5473 -73.9555
lclavicle -1.90833e-014 -1.59028e-014
lhumerus 53.9341 -21.1153 24.8116
lradius 55.2238
lwrist 5.70444
lhand 16.858 -6.76144
lfingers 7.12502
lthumb 41.5976 17.962
rfemur 0 0 0
rtibia 0
rfoot 0 0
rtoes 0
lfemur -22.363 1.10758 -17.7824
ltibia 24.0112
lfoot -15.2994 9.13304
ltoes -55.3112
661
root -0.214998 18.8806 4.74184 12.7377 -2.2895 2.27824
lowerback 22.2151 -3.27264 3.02407
upperback 4.09315 -3.03184 5.7584
thorax -7.73127 -1.46487 5.45554
lowerneck -17.1683 1.08915 -3.02845
upperneck 5.98647 3.20142 -10.3984
head 4.74632 0.782449 -2.48828
rclavicle 0 1.90833e-014
rhumerus -63.8947 -11.2249 -56.2449
rradius 54.9274
rwrist 0.116912
rhand -7.26623 -44.8921
rfingers 7.12502
rthumb 18.6148 -74.0214
lclavicle 0 1.90833e-014
lhumerus 52.771 -21.911 28.0957
lradius 52.8786
lwrist 3.92035
lhand 15.9353 -6.97359
lfingers 7.12502
lthumb 40.7313 18.0276
rfemur 0 0 0
rtibia 0
rfoot 0 0
rtoes 0
lfemur -22.1572 1.54555 -17.7555
ltibia 24.093
lfoot -15.49 9.34218
ltoes -55.3025
662
root -0.217628 18.8785 4.74039 12.6106 -2.93943 2.17385
lowerback 22.62 -4.08034 1.24991
upperback 4.67257 -4.53738 5.35613
thorax -7.09164 -2.17568 6.43577
lowerneck -19.4035 3.03845 0.526619
upperneck 5.6871 5.26711 -12.1405
head 5.24363 1.70253 -3.40671
rclavicle -6.2816e-014 6.91771e-014
rhumerus -61.5701 -10.8408 -58.4851
rradius 54.3278
rwrist 0.6077
rhand -7.09778 -44.5352
rfingers 7.12502
rthumb 18.7768 -73.649
lclavicle -6.2816e-014 6.91771e-014
lhumerus 49.644 -19.7255 29.8321
lradius 50.791
lwrist 1.64094
lhand 15.2489 -7.57547
lfingers 7.12502
lthumb 40.0859 17.6246
rfemur 0 0 0
rtibia 0
rfoot 0 0
rtoes 0
lfemur -21.9466 1.99046 -17.7198
ltibia 24.1428
lfoot -15.6622 9.51331
ltoes -55.3164
663
root -0.221524 18.877 4.74501 12.5724 -3.55483 2.08733
lowerback 22.5192 -4.25342 0.790397
upperback 4.59664 -4.89106 5.1589
thorax -7.06831 -2.34081 6.57057
lowerneck -19.382 3.38959 0.624356
upperneck 5.23839 5.68173 -12.3098
head 5.13663 1.91521 -3.43097
rclavicle -3.97569e-014 2.38542e-015
rhumerus -61.8524 -11.3775 -58.3587
rradius 54.2573
rwrist 0.853036
rhand -7.00921 -44.2453
rfingers 7.12502
rthumb 18.862 -73.3507
lclavicle -3.97569e-014 2.38542e-015
lhumerus 48.1661 -19.4908 33.0361
lradius 48.595
lwrist -1.30769
lhand 14.2894 -7.87355
lfingers 7.12502
lthumb 39.1824 17.594
rfemur 0 0 0
rtibia 0
rfoot 0 0
rtoes 0
lfemur -21.8046 2.44797 -17.7027
ltibia 24.173
lfoot -15.8087 9.63656
ltoes -55.3484
664
root -0.224338 18.8763 4.75708 12.4839 -4.21346 1.97186
lowerback 22.3386 -4.35672 0.396792
upperback 4.51097 -5.14176 4.95976
thorax -7.02796 -2.45804 6.62916
lowerneck -19.1386 3.69842 0.786664
upperneck 4.71834 6.01697 -12.5553
head 4.97331 2.09725 -3.49991
rclavicle 8.66701e-014 -1.09729e-013
rhumerus -62.2571 -11.893 -58.1992
rradius 54.2781
rwrist 1.05461
rhand -7.03779 -44.1568
rfingers 7.12502
rthumb 18.8345 -73.265
lclavicle 8.66701e-014 -1.09729e-013
lhumerus 46.8084 -19.3057 36.0078
lradius 46.5577
lwrist -4.02012
lhand 13.3799 -7.85774
lfingers 7.12502
lthumb 38.3245 17.8525
rfemur 0 0 0
rtibia 0
rfoot 0 0
rtoes 0
lfemur -21.5559 2.79503 -17.6392
ltibia 24.1967
lfoot -16.0541 9.87352
ltoes -55.2613
665
root -0.227212 18.875 4.76805 12.3103 -4.82549 1.8579
lowerback 22.271 -4.40145 0.00807997
upperback 4.43259 -5.30794 4.78428
thorax -7.04361 -2.53231 6.699
lowerneck -19.1324 4.00739 1.04038
upperneck 4.41269 6.37034 -12.8874
head 4.92473 2.26607 -3.60858
rclavicle 3.77691e-014 2.22639e-014
rhumerus -62.5475 -12.5118 -58.0586
rradius 54.2144
rwrist 1.22128
rhand -7.27882 -44.2815
rfingers 7.12502
rthumb 18.6026 -73.412
lclavicle 3.77691e-014 2.22639e-014
lhumerus 45.5796 -19.0365 38.859
lradius 44.6089
lwrist -6.25908
lhand 12.6334 -8.08388
lfingers 7.12502
lthumb 37.6195 17.8179
rfemur 0 0 0
rtibia 0
rfoot 0 0
rtoes 0
lfemur -21.22 3.05067 -17.5592
ltibia 24.2111
lfoot -16.3068 10.1579
ltoes -55.1994
666
root -0.229973 18.8735 4.77453 12.1739 -5.36814 1.79244
lowerback 22.2344 -4.44885 -0.458575
upperback 4.33801 -5.49249 4.62169
thorax -7.08102 -2.6125 6.83654
lowerneck -19.3296 4.37565 1.40441
upperneck 4.24243 6.79839 -13.2287
head 4.96245 2.45897 -3.72818
rclavicle -1.11319e-014 -1.66979e-014
rhumerus -62.6826 -12.8218 -58.0473
rradius 54.117
rwrist 1.1413
rhand -7.6472 -44.3609
rfingers 7.12502
rthumb 18.2483 -73.5249
lclavicle -1.11319e-014 -1.66979e-014
lhumerus 44.2443 -18.5406 41.6786
lradius 42.764
lwrist -8.25137
lhand 11.8934 -8.63015
lfingers 7.12502
lthumb 36.9199 17.455
rfemur 0 0 0
rtibia 0
rfoot 0 0
rtoes 0
lfemur -20.9515 3.2557 -17.5292
ltibia 24.2144
lfoot -16.4958 10.4377
ltoes -55.2059
667
root -0.234586 18.8729 4.78012 12.0227 -5.89746 1.73446
lowerback 22.2257 -4.47127 -0.905169
upperback 4.2093 -5.63879 4.45721
thorax -7.17527 -2.67122 6.95598
lowerneck -19.4452 4.66803 1.557
upperneck 4.00794 7.13192 -13.266
head 4.93936 2.62819 -3.72739
rclavicle 5.52621e-014 -9.54166e-015
rhumerus -62.8238 -13.1641 -58.0302
rradius 53.979
rwrist 1.29507
rhand -7.81214 -44.2238
rfingers 7.12502
rthumb 18.0896 -73.4025
lclavicle 5.52621e-014 -9.54166e-015
lhumerus 42.7833 -17.9495 44.5322
lradius 41.0942
lwrist -10.3352
lhand 11.2283 -9.2184
lfingers 7.12502
lthumb 36.2904 17.0262
rfemur 0 0 0
rtibia 0
rfoot 0 0
rtoes 0
lfemur -20.6626 3.41687 -17.4924
ltibia 24.2191
lfoot -16.7183 10.7101
ltoes -55.1228
668
root -0.242763 18.871 4.78744 11.8104 -6.41154 1.67204
lowerback 22.2057 -4.43944 -1.30376
upperback 4.08566 -5.70468 4.29073
thorax -7.27164 -2.6913 7.02316
lowerneck -19.4735 4.82552 1.55308
upperneck 3.69777 7.29569 -13.1707
head 4.85382 2.7272 -3.67903
rclavicle -1.39547e-013 6.40087e-014
rhumerus -62.9817 -13.4864 -58.0204
rradius 53.8667
rwrist 1.49529
rhand -7.84922 -44.1556
rfingers 7.12502
rthumb 18.0539 -73.3376
lclavicle -1.39547e-013 6.40087e-014
lhumerus 41.3671 -17.4426 47.187
lradius 39.5725
lwrist -12.5976
lhand 10.5076 -9.77792
lfingers 7.12502
lthumb 35.6076 16.634
rfemur 0 0 0
rtibia 0
rfoot 0 0
rtoes 0
lfemur -20.3151 3.53604 -17.4259
ltibia 24.2625
lfoot -16.9907 10.9973
ltoes -55.0634
669
root -0.251909 18.8665 4.79561 11.5843 -6.87382 1.60026
lowerback 22.1281 -4.40112 -1.63965
upperback 3.96238 -5.74952 4.11407
thorax -7.34713 -2.70285 7.03156
lowerneck -19.4039 4.96792 1.67357
upperneck 3.4004 7.42028 -13.1748
head 4.76375 2.80582 -3.68765
rclavicle 1.92821e-014 -2.38542e-015
rhumerus -63.1302 -13.8089 -58.027
rradius 53.7519
rwrist 1.74144
rhand -7.91901 -44.0241
rfingers 7.12502
rthumb 17.9868 -73.2124
lclavicle 1.92821e-014 -2.38542e-015
lhumerus 39.9545 -17.0896 49.4198
lradius 38.2529
lwrist -14.5835
lhand 9.78938 -10.2771
lfingers 7.12502
lthumb 34.9266 16.2961
rfemur 0 0 0
rtibia 0
rfoot 0 0
rtoes 0
lfemur -20.0097 3.63333 -17.3391
ltibia 24.408
lfoot -17.276 11.2717
ltoes -55.0619
670
root -0.253573 18.8631 4.80219 11.3086 -7.18173 1.26691
lowerback 22.1036 -4.43372 -1.54164
upperback 3.8744 -5.78064 3.99349
thorax -7.4509 -2.71559 6.85503
lowerneck -19.3852 5.11721 1.80263
upperneck 3.19371 7.5627 -13.1594
head 4.71071 2.8884 -3.68895
rclavicle -9.54166e-015 -1.47101e-014
rhumerus -63.2363 -14.1655 -58.0172
rradius 53.6515
rwrist 1.99125
rhand -7.9673 -43.8302
rfingers 7.12502
rthumb 17.9403 -73.0227
lclavicle -9.54166e-015 -1.47101e-014
lhumerus 38.5703 -16.8366 51.3822
lradius 37.1394
lwrist -15.9418
lhand 8.8847 -10.5981
lfingers 7.12502
lthumb 34.0678 16.1706
rfemur 0 0 0
rtibia 0
rfoot 0 0
rtoes 0
lfemur -19.6143 3.78094 -16.9734
ltibia 24.5201
lfoot -17.5136 11.3919
ltoes -55.005
